<svg xmlns="http://www.w3.org/2000/svg" width="130" height="27" viewBox="0 0 130 27"><path d="M.399 14.177c0-6.717 5.514-12 12.09-12 4.315 0 8.185 2.215 10.24 5.897.616 1.023.205 2.08-.617 2.455-.788.409-1.849.204-2.26-.614-1.61-2.66-4.315-4.261-7.364-4.261-4.692 0-8.596 3.852-8.596 8.523 0 4.704 3.904 8.386 8.596 8.386a8.567 8.567 0 0 0 7.158-3.887c.411-.818 1.678-1.023 2.26-.41.823.41 1.234 1.467.617 2.252-2.26 3.476-5.925 5.522-10.035 5.522-6.575 0-12.09-5.318-12.09-11.863m38.049 3.443c0-2.865-2.192-5.285-5.068-5.285-2.878 0-5.309 2.42-5.309 5.284s2.431 5.046 5.309 5.046c2.876 0 5.068-2.182 5.068-5.046m3.356 0v6.682c0 .99-.719 1.705-1.712 1.705-.685 0-1.644-.716-1.644-1.705-1.472 1.228-3.116 1.705-5.068 1.705-4.83 0-8.665-3.58-8.665-8.387 0-4.806 3.835-8.625 8.665-8.625 4.829 0 8.424 3.819 8.424 8.625m12.662-6.988c0 .92-.753 1.704-1.712 1.704h-2.431V24.37c0 .921-.754 1.705-1.713 1.705-.925 0-1.678-.784-1.678-1.705V12.335h-2.466c-.925 0-1.678-.784-1.678-1.704 0-.92.753-1.67 1.678-1.67h2.466v-6.82c0-.92.753-1.67 1.678-1.67.959 0 1.713.75 1.713 1.67V8.96h2.431c.96 0 1.712.75 1.712 1.671m4.615 5.147h9.898c-.72-2.386-2.911-3.476-4.967-3.476a5.233 5.233 0 0 0-4.931 3.476m13.528 1.705c0 .92-.754 1.67-1.713 1.67H59.08c.72 2.046 2.637 3.512 4.931 3.512.788 0 2.192-.068 3.836-1.125.788-.511 1.85-.034 2.261.784.411.852-.035 1.739-.822 2.25-2.26 1.5-4.007 1.466-5.275 1.466-4.76 0-8.596-3.852-8.596-8.557 0-4.738 3.836-8.557 8.596-8.557 4.145 0 8.597 3 8.597 8.557m12.362-6.852c0 .92-.754 1.704-1.713 1.704-2.877 0-5.205 2.319-5.205 5.182v6.852c0 .921-.754 1.705-1.678 1.705a1.714 1.714 0 0 1-1.713-1.705v-6.852c0-4.738 3.87-8.557 8.596-8.557.96 0 1.713.75 1.713 1.671m22.533 13.977l-2.91-14.216-5.378 14.387a1.727 1.727 0 0 1-1.644 1.193c-.753 0-1.404-.512-1.644-1.193l-4.76-13.876-2.569 13.705a1.68 1.68 0 0 1-1.952 1.398c-.959-.17-1.575-1.022-1.404-1.977L88.7 3.539a1.712 1.712 0 0 1 1.61-1.397c.787-.068 1.506.443 1.746 1.193l5.549 15.512 5.753-15.546c.24-.75.96-1.227 1.713-1.193a1.711 1.711 0 0 1 1.61 1.398l4.178 20.455a1.73 1.73 0 0 1-1.336 2.01c-.103 0-.24.035-.343.035-.787 0-1.506-.58-1.678-1.398m8.116-8.83h9.897c-.719-2.386-2.91-3.476-4.966-3.476a5.233 5.233 0 0 0-4.931 3.476m13.528 1.705c0 .92-.754 1.67-1.713 1.67h-11.815c.719 2.046 2.637 3.512 4.931 3.512.788 0 2.192-.068 3.836-1.125.788-.511 1.85-.034 2.261.784.411.852-.035 1.739-.822 2.25-2.26 1.5-4.008 1.466-5.275 1.466-4.76 0-8.596-3.852-8.596-8.557 0-4.738 3.836-8.557 8.596-8.557 4.145 0 8.597 3 8.597 8.557" fill="#48AA6E" fill-rule="evenodd"/></svg>