<svg xmlns="http://www.w3.org/2000/svg" xmlns:xlink="http://www.w3.org/1999/xlink" width="122" height="126" viewBox="0 0 122 126"><defs><linearGradient id="i" x1="50%" x2="50%" y1="0%" y2="100%"><stop offset="0%" stop-color="#55C376"/><stop offset="100%" stop-color="#48AA7F"/></linearGradient><path id="a" d="M48.157 84.66c0-9.116 6.742-19.507 15.072-23.216l21.338-9.502 20.957 9.437c8.31 3.742 15.26 14.17 15.521 23.27l.754 26.253c.111 3.864-2.282 8.909-5.346 11.27l-3.582 2.761-59.608.067V97.983l-5.106-3.29V84.66z"/><mask id="j" width="73.645" height="73.058" x="0" y="0" fill="#fff"><use xlink:href="#a"/></mask><path id="b" d="M72.834 43.381H94.43v13.684l-10.702 4.561-10.894-4.561z"/><mask id="k" width="21.596" height="18.245" x="0" y="0" fill="#fff"><use xlink:href="#b"/></mask><path id="c" d="M68.537 53.915l15.16 5.824 15.03-5.824v15.144l-14.894-6.99-15.296 6.99z"/><mask id="l" width="30.19" height="15.144" x="0" y="0" fill="#fff"><use xlink:href="#c"/></mask><rect id="d" width="8.473" height="10.523" x="61.153" y="24.75" rx="4.237"/><mask id="m" width="8.473" height="10.523" x="0" y="0" fill="#fff"><use xlink:href="#d"/></mask><rect id="e" width="8.473" height="10.523" x="96.986" y="24.75" rx="4.237"/><mask id="n" width="8.473" height="10.523" x="0" y="0" fill="#fff"><use xlink:href="#e"/></mask><path id="f" d="M64.12 19.504C63.687 8.732 72.076 0 82.839 0h.936c10.773 0 19.153 8.723 18.718 19.504l-.602 14.911c-.435 10.772-9.517 19.504-20.302 19.504h3.437c-10.778 0-19.867-8.723-20.303-19.504l-.601-14.91z"/><mask id="o" width="38.404" height="53.919" x="0" y="0" fill="#fff"><use xlink:href="#f"/></mask><path id="g" d="M64.058 15.424C63.658 6.905 70.246 0 78.778 0h9.057c8.53 0 15.12 6.914 14.72 15.424l-.727 15.468-.907-6.13c-.81-5.468-5.893-10.519-11.37-11.283l-6.29-.877c-5.47-.764-11.691 2.718-13.902 7.792l-4.575 10.498-.726-15.468z"/><mask id="p" width="38.532" height="30.892" x="0" y="0" fill="#fff"><use xlink:href="#g"/></mask><path id="h" d="M16.006 92.891c2.207-9.228 11.689-16.71 21.193-16.71h28.087c9.497 0 18.986 7.48 21.193 16.71l4.225 17.667H11.781l4.225-17.667z"/><mask id="q" width="78.923" height="34.376" x="0" y="0" fill="#fff"><use xlink:href="#h"/></mask></defs><g fill="none" fill-rule="evenodd" style="mix-blend-mode:multiply"><use fill="#FFF" stroke="url(#i)" stroke-width="4" mask="url(#j)" xlink:href="#a"/><use fill="#FFF" stroke="#42AC71" stroke-width="4" mask="url(#k)" xlink:href="#b"/><use fill="#FFF" stroke="url(#i)" stroke-width="4" mask="url(#l)" xlink:href="#c"/><path stroke="#42AC71" stroke-linecap="square" stroke-width="2" d="M111.892 90.937v33.507"/><use stroke="#42AC71" stroke-width="4" mask="url(#m)" xlink:href="#d"/><use stroke="#42AC71" stroke-width="4" mask="url(#n)" xlink:href="#e"/><use fill="#FFF" stroke="url(#i)" stroke-width="4" mask="url(#o)" xlink:href="#f"/><use fill="#FFF" stroke="#42AC71" stroke-width="4" mask="url(#p)" xlink:href="#g"/><ellipse cx="51.374" cy="73.576" fill="#BEE3CE" stroke="#42AC71" stroke-width="2" rx="2.961" ry="2.972"/><path stroke="#42AC71" stroke-width="2" d="M83.068 45.259a4.56 4.56 0 0 0 4.552-4.567h-9.103a4.56 4.56 0 0 0 4.551 4.567z"/><path stroke="#42AC71" d="M72.834 27.865c0-1.574 1.527-2.851 3.41-2.851 1.883 0 3.41 1.277 3.41 2.851m7.956 0c0-1.574 1.527-2.851 3.41-2.851 1.883 0 3.41 1.277 3.41 2.851"/><ellipse cx="76.244" cy="27.295" stroke="#42AC71" stroke-width="2" rx="1.137" ry="1.14"/><ellipse cx="91.02" cy="27.295" stroke="#42AC71" stroke-width="2" rx="1.137" ry="1.14"/><path stroke="#42AC71" stroke-linecap="square" d="M81.359 36.414h3.41M70.56 22.733h9.094m6.819 0h9.093"/><ellipse cx="51.957" cy="106.384" fill="#FFF" stroke="#42AC71" stroke-width="2" rx="10.162" ry="10.197"/><path stroke="#42AC71" stroke-linecap="square" stroke-width="1.5" d="M.868 110.172h99.968"/><use fill="#BEE3CE" stroke="url(#i)" stroke-width="4" mask="url(#q)" xlink:href="#h"/></g></svg>