<svg xmlns="http://www.w3.org/2000/svg" xmlns:xlink="http://www.w3.org/1999/xlink" width="183" height="88" viewBox="0 0 183 88"><defs><linearGradient id="d" x1="50%" x2="50%" y1="0%" y2="100%"><stop offset="0%" stop-color="#56C476"/><stop offset="100%" stop-color="#48AA7F"/></linearGradient><path id="a" d="M.703 15.717C.703 7.301 7.523.479 15.941.479h69.317c8.416 0 15.238 6.82 15.238 15.238 0 8.416-6.82 15.238-15.238 15.238H.703V15.717z"/><mask id="e" width="99.793" height="30.476" x="0" y="0" fill="#fff"><use xlink:href="#a"/></mask><path id="b" d="M36.248 71.408c0-8.867 7.181-16.054 16.062-16.054h69.419c8.87 0 16.061 7.186 16.061 16.054 0 8.867-7.18 16.054-16.061 16.054h-85.48V71.408z"/><mask id="f" width="101.542" height="32.109" x="0" y="0" fill="#fff"><use xlink:href="#b"/></mask><path id="c" d="M84.937 35.554c0-8.866 7.186-16.054 16.064-16.054h65.32c8.871 0 16.064 7.186 16.064 16.054 0 8.867-7.186 16.055-16.065 16.055H84.937V35.554z"/><mask id="g" width="97.447" height="32.109" x="0" y="0" fill="#fff"><use xlink:href="#c"/></mask></defs><g fill="none" fill-rule="evenodd" style="mix-blend-mode:multiply"><use fill="#FFF" stroke="url(#d)" stroke-width="4" mask="url(#e)" xlink:href="#a"/><use fill="#FFF" stroke="url(#d)" stroke-width="4" mask="url(#f)" xlink:href="#b"/><use fill="#BEE5D6" stroke="url(#d)" stroke-width="4" mask="url(#g)" transform="matrix(-1 0 0 1 267.322 0)" xlink:href="#c"/><path stroke="#30A464" stroke-linecap="square" stroke-width="2" d="M15.568 16.205h29.755"/><path stroke="#42AC71" stroke-linecap="square" stroke-width="2" d="M70.1 8.23V25.1m7.051-4.475h-9.058"/><path stroke="#42AC71" stroke-width="2" d="M70.431 8.23h5.23c2.387 0 4.321 2.137 4.321 4.761 0 2.63-1.932 4.763-4.321 4.763h-7.953"/><path stroke="#30A464" stroke-linecap="square" stroke-width="2" d="M155.698 27.303v16.87m7.339-4.397h-9.058"/><path stroke="#30A464" stroke-width="2" d="M156.317 27.303h5.23c2.386 0 4.321 2.138 4.321 4.762 0 2.63-1.933 4.763-4.322 4.763h-7.952"/><path stroke="#42AC71" stroke-linecap="square" stroke-width="2" d="M109.948 63.157v16.87m6.842-4.549h-9.057"/><path stroke="#42AC71" stroke-width="2" d="M110.07 63.157h5.23c2.387 0 4.322 2.137 4.322 4.762 0 2.63-1.933 4.762-4.322 4.762h-7.952"/><path stroke="#30A464" stroke-linecap="square" stroke-width="2" d="M104.757 35.848H137.1M52.02 70.9h33.21"/></g></svg>