<svg xmlns="http://www.w3.org/2000/svg" xmlns:xlink="http://www.w3.org/1999/xlink" width="85" height="86" viewBox="0 0 85 86"><defs><path id="a" d="M0 0h10.439v13.987h-5.22A5.224 5.224 0 0 1 0 8.759V0z"/><mask id="d" width="10.439" height="13.987" x="0" y="0" fill="#fff"><use xlink:href="#a"/></mask><linearGradient id="e" x1="50%" x2="50%" y1="0%" y2="100%"><stop offset="0%" stop-color="#56C476"/><stop offset="100%" stop-color="#48AA7F"/></linearGradient><path id="b" d="M4.626 14.01C4.626 6.272 10.894 0 18.625 0h55.591c-2.47 0-4.473 3.141-4.473 6.99v64.42c0 7.737-6.273 14.009-14.01 14.009H4.627v-71.41z"/><mask id="f" width="69.591" height="85.419" x="0" y="0" fill="#fff"><use xlink:href="#b"/></mask><path id="c" d="M15.612 72.635h62.979v6.494c0 3.586 2.914 6.494 6.077 6.494h-62.56a6.5 6.5 0 0 1-6.496-6.494v-6.494z"/><mask id="g" width="69.056" height="12.988" x="0" y="0" fill="#fff"><use xlink:href="#c"/></mask></defs><g fill="none" fill-rule="evenodd" style="mix-blend-mode:multiply"><use fill="#BEE5D6" stroke="#30A464" stroke-width="4" mask="url(#d)" transform="matrix(1 0 0 -1 0 13.987)" xlink:href="#a"/><use fill="#FFF" stroke="url(#e)" stroke-width="4" mask="url(#f)" transform="matrix(-1 0 0 1 78.842 0)" xlink:href="#b"/><use fill="#BEE5D6" stroke="#30A464" stroke-width="4" mask="url(#g)" transform="matrix(-1 0 0 1 100.28 0)" xlink:href="#c"/><path stroke="#30A464" stroke-linecap="square" stroke-width="2" d="M51.337 20.919H28.333m23.004 23.243H28.333m34.191-15.689H28.912m13.308 7.554H28.911"/></g></svg>